<?xml version="1.0" encoding="UTF-8"?>
<svg id="Layer_2" data-name="Layer 2" xmlns="http://www.w3.org/2000/svg" xmlns:xlink="http://www.w3.org/1999/xlink" viewBox="0 0 1263 1871.19">
  <defs>
    <style>
      .cls-1 {
        fill: url(#linear-gradient);
        stroke-width: 0px;
      }
    </style>
    <linearGradient id="linear-gradient" x1="277.47" y1="1317.85" x2="1165.34" y2="-183.67" gradientTransform="translate(0 1636.88) scale(1 -1)" gradientUnits="userSpaceOnUse">
      <stop offset="0" stop-color="#252b43"/>
      <stop offset=".37" stop-color="#4d5679"/>
      <stop offset=".48" stop-color="#687889"/>
      <stop offset=".72" stop-color="#afcdb4"/>
      <stop offset=".77" stop-color="#bfe1be"/>
      <stop offset="1" stop-color="#dff0e2"/>
    </linearGradient>
  </defs>
  <g id="Layer_1-2" data-name="Layer 1">
    <g id="Layer_1-2" data-name="Layer 1-2">
      <path class="cls-1" d="M0,45.74C109,23.74,286.04,6.52,329,3.74,391-.26,462-1.26,527,1.74c62.94,2.9,274.72,20.29,320,25,40.33,4.2,164,10,238,3,65.09-6.16,152-18,170-18s0,0,0,0v1802s-19.76,16.03-45,18c-64,5-104-9-275,24-198.96,38.4-439.04-6.04-484-13-168-26-266-20-298-19s-153,0-153,0V45.74Z"/>
    </g>
  </g>
</svg>