<?xml version="1.0" encoding="UTF-8"?><svg id="Layer_2" xmlns="http://www.w3.org/2000/svg" xmlns:xlink="http://www.w3.org/1999/xlink" viewBox="0 0 1263 1871.19"><defs><style>.cls-1{fill:url(#linear-gradient);stroke-width:0px;}</style><linearGradient id="linear-gradient" x1="277.47" y1="319.02" x2="920.32" y2="1406.18" gradientUnits="userSpaceOnUse"><stop offset="0" stop-color="#95deff"/><stop offset=".25" stop-color="#9eb2d5"/><stop offset=".82" stop-color="#b4466b"/><stop offset="1" stop-color="#bc244a"/></linearGradient></defs><g id="Layer_1-2"><path class="cls-1" d="m0,45.74C109,23.74,286.04,6.52,329,3.74,391-.26,462-1.26,527,1.74c62.94,2.9,274.72,20.29,320,25,40.33,4.2,164,10,238,3,65.09-6.16,152-18,170-18s0,0,0,0v1802s-19.76,16.03-45,18c-64,5-104-9-275,24-198.96,38.4-439.04-6.04-484-13-168-26-266-20-298-19s-153,0-153,0V45.74Z"/></g></svg>